<svg width="16" height="16" viewBox="0 0 16 16" fill="none" xmlns="http://www.w3.org/2000/svg">
<g clip-path="url(#clip0_506_286)">
<path d="M6.66686 12.6667C6.5111 12.667 6.36014 12.6127 6.2402 12.5133C6.17269 12.4574 6.11689 12.3886 6.07599 12.3111C6.03509 12.2335 6.00989 12.1486 6.00184 12.0613C5.99379 11.974 6.00304 11.8859 6.02907 11.8022C6.0551 11.7185 6.0974 11.6407 6.15353 11.5733L9.1402 8L6.2602 4.42C6.20482 4.35181 6.16347 4.27335 6.13851 4.18912C6.11356 4.10489 6.10549 4.01657 6.11479 3.92921C6.12408 3.84186 6.15054 3.75721 6.19266 3.68011C6.23478 3.60302 6.29171 3.53502 6.3602 3.48C6.42917 3.41931 6.50995 3.37353 6.59746 3.34554C6.68497 3.31755 6.77732 3.30794 6.86871 3.31733C6.96011 3.32672 7.04858 3.3549 7.12857 3.4001C7.20855 3.44531 7.27834 3.50655 7.33353 3.58L10.5535 7.58C10.6516 7.69929 10.7052 7.84892 10.7052 8.00333C10.7052 8.15775 10.6516 8.30738 10.5535 8.42667L7.2202 12.4267C7.15332 12.5073 7.06836 12.5711 6.97222 12.6128C6.87608 12.6545 6.77147 12.673 6.66686 12.6667Z" fill="#898989"/>
</g>
<defs>
<clipPath id="clip0_506_286">
<rect width="16" height="16" fill="white"/>
</clipPath>
</defs>
</svg>
