<svg width="30" height="23" viewBox="0 0 30 23" fill="none" xmlns="http://www.w3.org/2000/svg">
<g clip-path="url(#clip0_139_147)">
<path fill-rule="evenodd" clip-rule="evenodd" d="M0 0H30V22.5H0V0Z" fill="#229E45"/>
<path fill-rule="evenodd" clip-rule="evenodd" d="M15.0656 20.4375L29.1984 11.2641L14.9812 2.0625L0.801514 11.2828L15.0656 20.4375Z" fill="#F8E509"/>
<path fill-rule="evenodd" clip-rule="evenodd" d="M21.225 11.25C21.225 14.5453 18.5484 17.2172 15.2438 17.2172C14.0628 17.2153 12.909 16.8634 11.928 16.2059C10.9471 15.5483 10.1831 14.6147 9.7327 13.5231C9.28228 12.4314 9.16563 11.2307 9.39749 10.0728C9.62935 8.91485 10.1993 7.85165 11.0353 7.01759C11.8714 6.18354 12.9359 5.61607 14.0944 5.38693C15.2529 5.1578 16.4533 5.27728 17.5439 5.73027C18.6345 6.18326 19.5663 6.94942 20.2215 7.9319C20.8767 8.91438 21.2259 10.0691 21.225 11.25Z" fill="#2B49A3"/>
<path fill-rule="evenodd" clip-rule="evenodd" d="M13.2797 14.8266L13.0922 14.7188L12.9047 14.8125L12.9469 14.6016L12.7969 14.4422L13.0079 14.4188L13.111 14.2313L13.2 14.4282L13.4063 14.4657L13.2516 14.6063M17.2829 15.8391L17.1 15.7313L16.9125 15.825L16.95 15.6141L16.8047 15.4594L17.0157 15.436L17.1141 15.2438L17.2079 15.4407L17.4141 15.4782L17.2547 15.6235M15.5579 14.2172L15.3985 14.1235L15.2344 14.2079L15.2719 14.025L15.1407 13.8891L15.3282 13.8704L15.4125 13.7016L15.4875 13.875L15.6704 13.9079L15.5297 14.0344M19.6079 13.636L19.4485 13.5422L19.2844 13.6266L19.3219 13.4438L19.1954 13.3125L19.3782 13.2938L19.4625 13.1297L19.5375 13.2985L19.7157 13.3313L19.5797 13.4532M15.4875 12.4219L15.3 12.3188L15.1125 12.4125L15.15 12.1969L15.0047 12.0422L15.2157 12.0188L15.3141 11.8266L15.4079 12.0235L15.6141 12.061L15.4547 12.211M10.5516 10.5704L10.3641 10.4672L10.1766 10.561L10.2235 10.3454L10.0688 10.1907L10.2844 10.1672L10.3782 9.97505L10.4719 10.1719L10.6782 10.2094L10.5235 10.3547M11.1469 13.036L10.9594 12.9282L10.7719 13.0219L10.8141 12.811L10.6641 12.6563L10.875 12.6282L10.9735 12.4407L11.0672 12.6375L11.2735 12.675L11.1188 12.8204M17.3063 9.66567L17.1375 9.57192L16.9688 9.6563L17.0063 9.4688L16.875 9.32817L17.0625 9.30474L17.1516 9.13599L17.2313 9.31411L17.4188 9.34692L17.2782 9.47349M16.9641 11.2688L16.8375 11.1938L16.7016 11.2594L16.7297 11.1094L16.6266 11.0016L16.7766 10.9829L16.8469 10.8516L16.9079 10.9922L17.0485 11.0157L16.9454 11.1188M10.2797 13.4813L10.1532 13.411L10.0266 13.4719L10.0547 13.3313L9.9563 13.2282L10.0969 13.2094L10.1625 13.0829L10.2235 13.2141L10.3641 13.2422L10.2563 13.336M19.6407 14.0532L19.5375 14.0016L19.4344 14.0485L19.4579 13.9407L19.3782 13.8657L19.4907 13.8516L19.5469 13.7579L19.5938 13.8516L19.711 13.875L19.6219 13.9454" fill="#FFFFEF"/>
<path fill-rule="evenodd" clip-rule="evenodd" d="M10.2797 13.4812L10.1532 13.4109L10.0266 13.4718L10.0547 13.3312L9.9563 13.2281L10.0969 13.2093L10.1625 13.0828L10.2235 13.214L10.3641 13.2421L10.2563 13.3359" fill="#FFFFEF"/>
<path fill-rule="evenodd" clip-rule="evenodd" d="M10.2797 13.4813L10.1532 13.411L10.0266 13.4719L10.0547 13.3313L9.9563 13.2282L10.0969 13.2094L10.1625 13.0829L10.2235 13.2141L10.3641 13.2422L10.2563 13.336M12.2391 13.4766L12.1172 13.411L11.9907 13.4719L12.0188 13.3313L11.9204 13.2282L12.061 13.2094L12.1266 13.0829L12.1875 13.2141L12.3282 13.2375L12.2204 13.336M11.9954 14.1329L11.8735 14.0625L11.7469 14.1282L11.775 13.9875L11.6766 13.8797L11.8172 13.861L11.8829 13.7344L11.9438 13.8657L12.0844 13.8938L11.9766 13.9875M16.0735 12.9469L15.9516 12.8719L15.8204 12.9375L15.8485 12.7969L15.7547 12.6891L15.8954 12.675L15.961 12.5485L16.0172 12.6797L16.1579 12.7032L16.0547 12.8016M14.8782 12.9422L14.7516 12.8719L14.625 12.9375L14.6532 12.7969L14.5594 12.6891L14.7 12.675L14.7657 12.5438L14.8219 12.6797L14.9625 12.7032L14.8594 12.8016M11.6344 12.5297L11.5547 12.4829L11.475 12.5204L11.4938 12.4313L11.4329 12.3657L11.5219 12.3563L11.5594 12.2766L11.5969 12.361L11.686 12.375L11.6204 12.436M19.486 14.5641L19.3641 14.4938L19.2375 14.5594L19.2657 14.4188L19.1672 14.311L19.3079 14.2922L19.3735 14.1657L19.4344 14.2969L19.575 14.325L19.4672 14.4188M18.4922 14.7L18.3891 14.6344L18.2813 14.6907L18.3047 14.5688L18.225 14.4844L18.3422 14.4704L18.3985 14.3625L18.4454 14.475L18.5625 14.4938L18.4735 14.5782M18.961 14.686L18.8672 14.6297L18.7688 14.6766L18.7875 14.5688L18.7125 14.4891L18.8204 14.475L18.8719 14.3813L18.9188 14.475L19.0266 14.4985L18.9469 14.5735M20.311 13.5047L20.2172 13.4579L20.1235 13.5047L20.1469 13.3969L20.0719 13.3172L20.1797 13.3032L20.2266 13.2094L20.2735 13.3079L20.3719 13.3266L20.2969 13.4016M18.4782 15.361L18.361 15.2954L18.2344 15.3516L18.2625 15.2204L18.1688 15.1266L18.3094 15.1125L18.3704 14.9954L18.4266 15.1172L18.5672 15.1407L18.4594 15.2297M18.4875 15.8954L18.375 15.8297L18.2625 15.8907L18.2907 15.7594L18.2016 15.6657L18.3282 15.6469L18.3844 15.5297L18.436 15.6516L18.5625 15.675L18.4688 15.7688M17.5782 14.686L17.4891 14.6297L17.3954 14.6766L17.4141 14.5735L17.3438 14.4938L17.4469 14.4844L17.4938 14.3907L17.5407 14.4844L17.6438 14.5032L17.5688 14.5782M16.7344 14.686L16.6407 14.6297L16.5469 14.6766L16.5704 14.5735L16.4954 14.4938L16.6032 14.4844L16.65 14.3907L16.6969 14.4844L16.7954 14.5032L16.7204 14.5782M15.2954 13.425L15.2016 13.3735L15.1079 13.4204L15.1313 13.3125L15.0563 13.2375L15.1594 13.2235L15.2063 13.1297L15.2532 13.2235L15.3563 13.2469L15.2813 13.3172M15.4547 15.9891L15.3797 15.9469L15.2954 15.9891L15.3141 15.8954L15.2532 15.8297L15.3422 15.8204L15.3844 15.7407L15.4219 15.825L15.511 15.8391L15.4454 15.9M13.2797 11.8407L13.0922 11.7329L12.9047 11.8266L12.9469 11.6157L12.7969 11.461L13.0079 11.4329L13.111 11.2454L13.2 11.4422L13.4063 11.4797L13.2516 11.625" fill="#FFFFEF"/>
<path fill-rule="evenodd" clip-rule="evenodd" d="M20.8312 13.3969C20.9474 13.0956 21.0383 12.7851 21.1031 12.4688C17.925 9.67973 14.3859 8.25004 9.91406 8.54535C9.75187 8.85918 9.61851 9.18709 9.51562 9.52504C14.8125 9.01879 18.7031 11.3625 20.8312 13.3969Z" fill="white"/>
<path d="M19.4063 11.8312L19.5141 11.8922C19.498 11.924 19.493 11.9603 19.5 11.9953C19.511 12.0292 19.5345 12.0577 19.5656 12.075C19.5985 12.0984 19.6313 12.1125 19.6594 12.1078C19.6875 12.1078 19.7063 12.0938 19.7203 12.075C19.7285 12.0626 19.7318 12.0475 19.7297 12.0328C19.7259 12.0155 19.7178 11.9994 19.7063 11.9859C19.6969 11.9719 19.6735 11.9391 19.636 11.9016C19.5974 11.8618 19.5685 11.8137 19.5516 11.7609C19.5399 11.721 19.5429 11.6782 19.5601 11.6404C19.5773 11.6025 19.6076 11.5721 19.6453 11.5547C19.6794 11.5405 19.7171 11.5372 19.7531 11.5453C19.7972 11.5555 19.8387 11.5746 19.875 11.6016C19.9406 11.6484 19.9828 11.6953 19.9969 11.7516C20.0034 11.7779 20.0042 11.8053 19.9994 11.8319C19.9945 11.8586 19.9841 11.8839 19.9688 11.9062L19.8563 11.8359C19.8703 11.8078 19.875 11.7797 19.8656 11.7563C19.861 11.7328 19.8422 11.7094 19.8094 11.6906C19.7853 11.6713 19.7559 11.6598 19.725 11.6578C19.7165 11.6575 19.7081 11.6596 19.7007 11.6637C19.6933 11.6678 19.6871 11.6739 19.6828 11.6812C19.6735 11.6953 19.6735 11.7094 19.6781 11.7281C19.6828 11.7469 19.7063 11.7844 19.7531 11.8312C19.8 11.8781 19.8281 11.9203 19.8469 11.9484C19.8636 11.9792 19.8712 12.014 19.8687 12.0489C19.8662 12.0838 19.8538 12.1173 19.8328 12.1453C19.8109 12.1772 19.7799 12.2017 19.7438 12.2156C19.7086 12.2318 19.6693 12.2367 19.6313 12.2297C19.5891 12.2203 19.5469 12.2016 19.5 12.1688C19.4297 12.1219 19.3875 12.0703 19.3735 12.0141C19.3582 11.9503 19.3683 11.8831 19.4016 11.8266L19.4063 11.8312ZM18.8625 11.475L18.9797 11.5359C18.9652 11.5683 18.9619 11.6046 18.9703 11.6391C18.9823 11.6712 19.0057 11.6979 19.036 11.7141C19.0735 11.7375 19.1016 11.7469 19.1297 11.7422C19.1578 11.7422 19.1766 11.7281 19.1906 11.7047C19.1978 11.6935 19.2011 11.6804 19.2 11.6672C19.2 11.6531 19.1906 11.6344 19.1766 11.6203C19.1526 11.5913 19.1276 11.5632 19.1016 11.5359C19.05 11.4844 19.0172 11.4422 19.0078 11.4047C19.0002 11.3806 18.9979 11.3551 19.0011 11.33C19.0044 11.3049 19.013 11.2808 19.0266 11.2594C19.0444 11.2304 19.0705 11.2076 19.1016 11.1938C19.1338 11.1789 19.1697 11.174 19.2047 11.1797C19.2481 11.187 19.2895 11.2029 19.3266 11.2266C19.3969 11.2734 19.4391 11.3203 19.4531 11.3719C19.4617 11.3982 19.4644 11.4261 19.4612 11.4536C19.458 11.4811 19.4488 11.5076 19.4344 11.5312L19.3172 11.4656C19.3313 11.4328 19.336 11.4094 19.3266 11.3859C19.3172 11.3625 19.2985 11.3391 19.2656 11.3203C19.2397 11.3017 19.2085 11.2918 19.1766 11.2922C19.1689 11.2927 19.1614 11.2951 19.1549 11.2992C19.1484 11.3033 19.1429 11.3089 19.1391 11.3156C19.1297 11.3297 19.1297 11.3437 19.1344 11.3625C19.1391 11.3812 19.1672 11.4188 19.2141 11.4656C19.261 11.5125 19.2938 11.55 19.3078 11.5781C19.3266 11.6075 19.3366 11.6417 19.3366 11.6766C19.3366 11.7114 19.3266 11.7456 19.3078 11.775C19.2876 11.8077 19.2583 11.8338 19.2235 11.85C19.1883 11.8662 19.149 11.8711 19.111 11.8641C19.0627 11.8559 19.0165 11.8384 18.975 11.8125C18.9144 11.7802 18.8677 11.7268 18.8438 11.6625C18.8257 11.5999 18.8324 11.5328 18.8625 11.475ZM18.1969 11.2969L18.5391 10.7344L18.9516 10.9922L18.8953 11.0859L18.5953 10.8984L18.5203 11.025L18.8016 11.1984L18.7406 11.2922L18.4594 11.1187L18.3656 11.2734L18.6797 11.4609L18.6235 11.5547L18.2016 11.2969H18.1969ZM17.2266 10.5L17.2781 10.4062L17.5313 10.5328L17.4141 10.7672C17.3766 10.7766 17.3297 10.7812 17.2735 10.7766C17.2194 10.7706 17.167 10.7547 17.1188 10.7297C17.0621 10.7021 17.0136 10.66 16.9781 10.6078C16.9459 10.5593 16.9295 10.502 16.9313 10.4438C16.9337 10.3831 16.9497 10.3239 16.9781 10.2703C17.0063 10.2139 17.0482 10.1656 17.1 10.1297C17.1496 10.0954 17.2085 10.0774 17.2688 10.0781C17.3156 10.0781 17.3625 10.0922 17.4188 10.125C17.4938 10.1578 17.5406 10.2047 17.5641 10.2563C17.5885 10.3074 17.5935 10.3657 17.5781 10.4203L17.4516 10.3828C17.4593 10.3514 17.456 10.3183 17.4422 10.2891C17.4281 10.2609 17.4047 10.2422 17.3672 10.2234C17.3454 10.211 17.3211 10.2033 17.2961 10.2008C17.271 10.1984 17.2457 10.2013 17.2219 10.2094C17.175 10.2234 17.1328 10.2656 17.1 10.3312C17.0672 10.3969 17.0531 10.4578 17.0672 10.5094C17.0737 10.5338 17.0854 10.5566 17.1016 10.576C17.1178 10.5954 17.1381 10.6111 17.161 10.6219C17.1844 10.6359 17.2125 10.6453 17.2406 10.6453C17.2686 10.6496 17.2971 10.6496 17.325 10.6453L17.3625 10.5703L17.2266 10.5ZM12.9985 9.45469L13.0922 8.79844L13.2891 8.83125L13.3406 9.29062L13.5235 8.86875L13.7203 8.89688L13.6266 9.54375L13.5 9.525L13.5797 9.01406L13.3735 9.50625L13.2469 9.4875L13.1953 8.95781L13.1203 9.47344L12.9985 9.45469ZM12.3375 9.375L12.3985 8.71875L12.8813 8.76562L12.8719 8.87812L12.5203 8.84531L12.5063 8.98594L12.8344 9.01875L12.8203 9.13125L12.4922 9.09844L12.4781 9.27656L12.8438 9.30938L12.8344 9.42188L12.3375 9.375Z" fill="#309E3A"/>
<path d="M10.1485 8.96714C10.1485 8.89683 10.1625 8.84526 10.1813 8.79839C10.1977 8.76505 10.2199 8.7349 10.2469 8.70933C10.2709 8.68508 10.2996 8.66594 10.3313 8.65308C10.3781 8.63901 10.425 8.62964 10.4719 8.62964C10.5703 8.62964 10.6453 8.66714 10.7063 8.72339C10.7353 8.75922 10.7568 8.80048 10.7697 8.84474C10.7826 8.88901 10.7865 8.9354 10.7813 8.9812C10.7813 9.08433 10.7485 9.1687 10.6875 9.22964C10.6562 9.25858 10.6192 9.28063 10.5788 9.29436C10.5384 9.30808 10.4956 9.31318 10.4531 9.30933C10.4112 9.30975 10.3697 9.30166 10.331 9.28554C10.2923 9.26943 10.2573 9.24562 10.2281 9.21558C10.1698 9.14654 10.1412 9.05723 10.1485 8.96714Z" fill="#309E3A"/>
<path d="M10.2844 8.96715C10.2844 9.03746 10.2985 9.09371 10.3313 9.1359C10.3641 9.1734 10.4063 9.19684 10.4625 9.19684C10.4869 9.19854 10.5113 9.1948 10.534 9.18588C10.5567 9.17696 10.5771 9.16309 10.5938 9.14528C10.6266 9.10778 10.6407 9.05153 10.6454 8.97184C10.6454 8.89684 10.636 8.84059 10.5985 8.80309C10.5832 8.7842 10.5639 8.76893 10.5421 8.75839C10.5202 8.74785 10.4962 8.74231 10.4719 8.74215C10.4473 8.74136 10.4227 8.74599 10.4001 8.75571C10.3774 8.76543 10.3571 8.78 10.3407 8.7984C10.3032 8.8359 10.2891 8.89215 10.2844 8.96715Z" fill="#F7FFFF"/>
<path d="M10.9219 9.30469L10.9312 8.64844H11.2125C11.2828 8.64844 11.3297 8.65781 11.3625 8.67188C11.3953 8.68125 11.4187 8.70469 11.4375 8.73281C11.4563 8.76094 11.4656 8.79844 11.4656 8.84063C11.466 8.88572 11.4492 8.92927 11.4188 8.9625C11.3841 8.99496 11.3395 9.01478 11.2922 9.01875L11.3625 9.075C11.3812 9.09375 11.4047 9.13125 11.4328 9.18281L11.5125 9.31406H11.3531L11.2594 9.16406L11.1938 9.07031C11.1824 9.05741 11.1678 9.04772 11.1516 9.04219C11.1302 9.03597 11.1081 9.03281 11.0859 9.03281H11.0578V9.30469H10.9219Z" fill="#309E3A"/>
<path d="M11.0625 8.92974H11.1562C11.2219 8.92974 11.2641 8.92974 11.2781 8.92036C11.2922 8.92036 11.3062 8.9063 11.3156 8.89692C11.325 8.88755 11.3297 8.86411 11.3297 8.85005C11.3297 8.82192 11.325 8.80317 11.3109 8.7938C11.3016 8.77974 11.2828 8.77036 11.2641 8.76567H11.1703L11.0625 8.76099V8.92505V8.92974Z" fill="white"/>
<path d="M11.6719 8.68127L11.9156 8.69534C11.9672 8.69534 12.0093 8.70002 12.0375 8.7094C12.074 8.72264 12.1063 8.74527 12.1312 8.77502C12.1582 8.8078 12.1775 8.84626 12.1875 8.88752C12.2015 8.92971 12.2062 8.98127 12.2015 9.04221C12.2015 9.09006 12.1936 9.13757 12.1781 9.18284C12.1593 9.22971 12.1312 9.26721 12.0984 9.29534C12.0711 9.31784 12.0391 9.33386 12.0047 9.34221C11.9765 9.35159 11.9344 9.35159 11.8875 9.35159L11.639 9.33752L11.6719 8.68127Z" fill="#309E3A"/>
<path d="M11.7985 8.79846L11.775 9.2344H11.9531C11.9766 9.2344 11.9953 9.22502 12.0094 9.21096C12.0235 9.1969 12.0375 9.17815 12.0469 9.15002C12.0563 9.1219 12.0656 9.07971 12.0656 9.02815L12.061 8.91096C12.0543 8.88625 12.0414 8.86365 12.0235 8.84534C12.0079 8.82968 11.9885 8.81837 11.9672 8.81252C11.9318 8.80463 11.8957 8.79993 11.8594 8.79846H11.7985Z" fill="white"/>
<path d="M14.8875 9.85308L15.0421 9.21558L15.2484 9.26245L15.3984 9.30933C15.4312 9.32808 15.4593 9.3562 15.4734 9.39839C15.4921 9.43589 15.4921 9.47808 15.4828 9.52964C15.4734 9.56714 15.4593 9.59995 15.4359 9.62339C15.4187 9.64397 15.3972 9.66052 15.3729 9.67186C15.3486 9.6832 15.3221 9.68906 15.2953 9.68901C15.2625 9.68901 15.2156 9.67964 15.1546 9.66558L15.075 9.64214L15.0187 9.88589L14.8875 9.85308Z" fill="#309E3A"/>
<path d="M15.1405 9.3562L15.103 9.53433L15.1733 9.55308C15.2202 9.56245 15.2577 9.57183 15.2765 9.56714C15.2947 9.56461 15.3117 9.55649 15.3251 9.5439C15.3386 9.5313 15.3478 9.51486 15.3515 9.49683C15.3515 9.47339 15.3515 9.45464 15.3421 9.43589C15.3318 9.41683 15.3152 9.40193 15.2952 9.3937L15.2062 9.37026L15.1452 9.3562H15.1405Z" fill="white"/>
<path d="M15.4968 10.036L15.7171 9.41724L15.975 9.51099C16.0453 9.53442 16.0875 9.55786 16.1156 9.57661C16.139 9.60005 16.1578 9.62349 16.1625 9.66099C16.1671 9.69849 16.1718 9.7313 16.1625 9.7688C16.1437 9.81567 16.1156 9.84849 16.0781 9.87192C16.0406 9.89067 15.9937 9.89536 15.9375 9.88599C15.9562 9.90942 15.975 9.93286 15.9843 9.96099L16.0218 10.0875L16.05 10.2329L15.9046 10.1813L15.8578 10.0125C15.8492 9.97439 15.8383 9.93681 15.825 9.90005C15.8187 9.88547 15.8091 9.8726 15.7968 9.86255C15.7875 9.84849 15.7687 9.83911 15.7359 9.82974L15.7125 9.82036L15.6187 10.0829L15.4968 10.036Z" fill="#309E3A"/>
<path d="M15.7499 9.72195L15.839 9.75476C15.8999 9.7782 15.9374 9.78757 15.9562 9.78757C15.9702 9.78757 15.9843 9.78757 15.9984 9.77351C16.0124 9.76414 16.0218 9.75007 16.0265 9.73132C16.0359 9.71257 16.0359 9.69382 16.0265 9.67507C16.0196 9.65691 16.0062 9.6419 15.989 9.63289L15.8952 9.60007L15.8015 9.56726L15.7452 9.72195H15.7499Z" fill="white"/>
<path d="M16.2656 10.0125C16.2817 9.95764 16.3088 9.9066 16.3453 9.86252C16.369 9.83424 16.3976 9.81043 16.4297 9.79221C16.4587 9.7758 16.4905 9.76469 16.5234 9.7594C16.5703 9.7594 16.6172 9.7594 16.6687 9.77815C16.7106 9.78852 16.7499 9.80767 16.7838 9.83434C16.8177 9.861 16.8456 9.89458 16.8656 9.93284C16.9031 10.0078 16.9031 10.0969 16.875 10.2C16.8518 10.2886 16.7945 10.3644 16.7156 10.411C16.6453 10.4531 16.5609 10.4578 16.4719 10.4297C16.4301 10.4191 16.391 10.3998 16.3571 10.3732C16.3232 10.3465 16.2952 10.3131 16.275 10.275C16.2562 10.234 16.2457 10.1898 16.2441 10.1447C16.2425 10.0997 16.2498 10.0547 16.2656 10.0125Z" fill="#309E3A"/>
<path d="M16.3969 10.05C16.3781 10.1203 16.3734 10.1813 16.3969 10.2281C16.4203 10.275 16.4531 10.3031 16.5047 10.3219C16.5515 10.3359 16.5984 10.3313 16.6453 10.3031C16.6922 10.2797 16.7203 10.2281 16.7437 10.1531C16.7672 10.0828 16.7672 10.0266 16.7437 9.9797C16.7345 9.95746 16.7204 9.93753 16.7026 9.92133C16.6848 9.90512 16.6636 9.89304 16.6406 9.88595C16.6175 9.87798 16.593 9.87512 16.5687 9.87755C16.5445 9.87997 16.521 9.88764 16.5 9.90001C16.4531 9.92813 16.4203 9.97501 16.3969 10.05Z" fill="white"/>
<path d="M17.5453 10.9266L17.8453 10.3453L18.0937 10.4719C18.1406 10.4944 18.1833 10.5245 18.2203 10.561C18.2437 10.5844 18.2578 10.6125 18.2578 10.65C18.2578 10.6875 18.2578 10.7203 18.239 10.7531C18.221 10.7953 18.1874 10.8289 18.1453 10.8469C18.0984 10.8563 18.0515 10.8563 18 10.8375C18.0187 10.8656 18.0281 10.8938 18.0375 10.9172C18.0469 10.9453 18.0515 10.9875 18.0562 11.0485L18.0656 11.1985L17.925 11.1281L17.9062 10.9547C17.904 10.9154 17.8993 10.8763 17.8922 10.8375C17.889 10.82 17.8808 10.8037 17.8687 10.7906L17.8125 10.7578L17.789 10.7438L17.6625 10.9875L17.5453 10.9266Z" fill="#309E3A"/>
<path d="M17.8359 10.65L17.925 10.6969C17.9812 10.725 18.0188 10.7437 18.0328 10.7437C18.0469 10.7437 18.0656 10.7438 18.0797 10.7344C18.0938 10.7297 18.1031 10.7156 18.1125 10.6969C18.1219 10.6781 18.1266 10.6594 18.1219 10.6406C18.1161 10.622 18.1046 10.6056 18.0891 10.5938C18.0616 10.5769 18.0335 10.5613 18.0047 10.5469L17.9109 10.5L17.8359 10.65Z" fill="white"/>
<path d="M19.9734 12.1265C20.0038 12.0783 20.0436 12.0369 20.0906 12.0047C20.1221 11.9845 20.1571 11.9702 20.1937 11.9625C20.2278 11.9555 20.2628 11.9555 20.2969 11.9625C20.3437 11.9719 20.3859 11.9906 20.4281 12.0187C20.4646 12.0415 20.4959 12.0715 20.5201 12.107C20.5444 12.1426 20.5609 12.1827 20.5687 12.225C20.5828 12.3047 20.5594 12.3937 20.5031 12.4828C20.4561 12.5603 20.3802 12.6159 20.2922 12.6375C20.2502 12.6465 20.2068 12.6466 20.1648 12.6378C20.1228 12.6289 20.0831 12.6112 20.0484 12.5859C20.0119 12.5632 19.9806 12.5331 19.9564 12.4976C19.9322 12.4621 19.9156 12.4219 19.9078 12.3797C19.8937 12.2953 19.9172 12.2109 19.9734 12.1265Z" fill="#309E3A"/>
<path d="M20.0906 12.2015C20.0437 12.2625 20.0296 12.3187 20.039 12.3703C20.0424 12.394 20.0509 12.4167 20.0639 12.437C20.0768 12.4572 20.0939 12.4744 20.114 12.4875C20.1609 12.5203 20.2077 12.5296 20.2546 12.5156C20.3015 12.5015 20.3484 12.4687 20.3906 12.4031C20.4327 12.3375 20.4515 12.2812 20.4421 12.2343C20.4374 12.1875 20.4093 12.1453 20.3671 12.1125C20.3249 12.0796 20.2734 12.075 20.2265 12.089C20.1796 12.0984 20.1327 12.1359 20.0859 12.2015H20.0906Z" fill="white"/>
<path d="M14.1469 9.58596L14.2547 9.12659L14.5922 9.20627L14.5781 9.28127L14.3297 9.22502L14.3062 9.32815L14.5359 9.37971L14.5172 9.4594L14.2875 9.40315L14.2594 9.52971L14.5172 9.59065L14.4984 9.66565L14.1469 9.58596Z" fill="#309E3A"/>
</g>
<defs>
<clipPath id="clip0_139_147">
<rect width="30" height="22.5" fill="white"/>
</clipPath>
</defs>
</svg>
