<svg width="16" height="16" viewBox="0 0 16 16" fill="none" xmlns="http://www.w3.org/2000/svg">
<path d="M8 14.25C11.4469 14.25 14.25 11.4469 14.25 8C14.25 6.2875 13.5719 4.69062 12.3375 3.5C12.1375 3.30625 11.8188 3.3125 11.6281 3.5125C11.4344 3.7125 11.4406 4.03125 11.6406 4.22188C12.675 5.22188 13.2438 6.5625 13.2438 8C13.2438 10.8906 10.8906 13.2437 8 13.2437C5.10938 13.2437 2.75625 10.8906 2.75625 8C2.75625 5.27813 4.84062 3.03125 7.5 2.77813V4.73438C7.5 5.0125 7.725 5.2375 8.00313 5.2375C8.28125 5.2375 8.50625 5.0125 8.50625 4.73438V2.25312C8.50625 1.975 8.28125 1.75 8.00313 1.75C4.55625 1.75 1.75313 4.55312 1.75313 8C1.75313 11.4469 4.55313 14.25 8 14.25Z" fill="#CDCDCD"/>
<path d="M10.5031 5.05935L7.39374 7.29372C6.97186 7.59685 6.87186 8.18435 7.17499 8.60622C7.47811 9.0281 8.06561 9.1281 8.48749 8.82497C8.57499 8.76247 8.64999 8.68747 8.70624 8.60622L10.9406 5.49685C11.0406 5.35622 11.0094 5.15935 10.8687 5.05935C10.7562 4.9781 10.6094 4.98435 10.5031 5.05935Z" fill="#CDCDCD"/>
</svg>
