<svg width="32" height="24" viewBox="0 0 32 24" fill="none" xmlns="http://www.w3.org/2000/svg">
<path d="M29.1343 2H2.86575C2.75634 2 2.64675 2 2.53754 2.00064C2.44522 2.0013 2.35312 2.00232 2.26102 2.00483C2.06015 2.01027 1.85756 2.02212 1.6592 2.05777C1.45768 2.09404 1.27015 2.15319 1.0872 2.24634C0.907346 2.3378 0.742688 2.45744 0.599994 2.60019C0.457238 2.74294 0.337606 2.90733 0.246161 3.08738C0.152996 3.27033 0.0937985 3.45791 0.0577814 3.65959C0.0219401 3.85801 0.0100098 4.06056 0.00459659 4.26121C0.00212198 4.35331 0.0010606 4.44542 0.000459349 4.5375C-0.000178636 4.64694 3.40259e-05 4.75631 3.40259e-05 4.86595V19.6204C3.40259e-05 19.73 -0.000178636 19.8392 0.000459349 19.9488C0.0010606 20.0409 0.00212198 20.133 0.00459659 20.2251C0.0100098 20.4256 0.0219401 20.6282 0.0577814 20.8265C0.0937985 21.0283 0.152996 21.2158 0.246161 21.3988C0.337606 21.5788 0.457238 21.7434 0.599994 21.8859C0.742688 22.0289 0.907346 22.1485 1.0872 22.2398C1.27015 22.3332 1.45768 22.3923 1.6592 22.4286C1.85756 22.464 2.06015 22.4761 2.26102 22.4815C2.35312 22.4836 2.44522 22.4848 2.53754 22.4853C2.64675 22.4861 2.75634 22.4861 2.86575 22.4861H29.1343C29.2435 22.4861 29.3531 22.4861 29.4623 22.4853C29.5544 22.4848 29.6465 22.4836 29.739 22.4815C29.9395 22.4761 30.142 22.464 30.3409 22.4286C30.5421 22.3923 30.7297 22.3332 30.9126 22.2398C31.0927 22.1485 31.2569 22.0289 31.3999 21.8859C31.5424 21.7434 31.662 21.5788 31.7537 21.3988C31.8471 21.2158 31.9062 21.0283 31.942 20.8265C31.9779 20.6282 31.9895 20.4256 31.995 20.2251C31.9975 20.133 31.9987 20.0409 31.9992 19.9488C32 19.8392 32 19.73 32 19.6204V4.86595C32 4.75631 32 4.64694 31.9992 4.5375C31.9987 4.44542 31.9975 4.35331 31.995 4.26121C31.9895 4.06056 31.9779 3.85801 31.942 3.65959C31.9062 3.45791 31.8471 3.27033 31.7537 3.08738C31.662 2.90733 31.5424 2.74294 31.3999 2.60019C31.2569 2.45744 31.0927 2.3378 30.9126 2.24634C30.7297 2.15319 30.5421 2.09404 30.3409 2.05777C30.142 2.02212 29.9395 2.01027 29.739 2.00483C29.6465 2.00232 29.5544 2.0013 29.4623 2.00064C29.3531 2 29.2435 2 29.1343 2Z" fill="#1C1C28"/>
<path d="M29.1343 2.6828L29.4574 2.68342C29.545 2.68404 29.6325 2.68498 29.7206 2.68738C29.8737 2.69152 30.0528 2.69981 30.2197 2.72974C30.3649 2.75588 30.4866 2.79563 30.6034 2.85509C30.7187 2.91369 30.8244 2.99048 30.9166 3.0826C31.0092 3.17534 31.0861 3.28117 31.1455 3.39777C31.2046 3.51367 31.2441 3.63481 31.2701 3.781C31.3 3.94615 31.3082 4.12575 31.3124 4.27981C31.3148 4.36677 31.3159 4.45373 31.3164 4.54276C31.3172 4.65042 31.3172 4.75803 31.3172 4.86591V19.6203C31.3172 19.7282 31.3172 19.8356 31.3163 19.9456C31.3159 20.0325 31.3148 20.1195 31.3124 20.2066C31.3082 20.3604 31.3 20.54 31.2698 20.707C31.2441 20.8512 31.2047 20.9724 31.1452 21.0889C31.086 21.2052 31.0092 21.3109 30.917 21.403C30.8242 21.4958 30.7189 21.5724 30.6022 21.6315C30.4863 21.6907 30.3648 21.7304 30.2211 21.7563C30.0508 21.7867 29.8641 21.795 29.7236 21.7988C29.6352 21.8008 29.5472 21.802 29.457 21.8024C29.3496 21.8033 29.2418 21.8032 29.1343 21.8032H2.86576C2.86433 21.8032 2.86293 21.8032 2.86148 21.8032C2.75527 21.8032 2.64884 21.8032 2.54069 21.8024C2.45252 21.802 2.36453 21.8008 2.27947 21.7989C2.13571 21.795 1.94897 21.7867 1.78002 21.7565C1.63509 21.7304 1.51358 21.6907 1.39611 21.6308C1.28052 21.5722 1.17529 21.4957 1.08247 21.4027C0.99037 21.3108 0.913831 21.2054 0.854653 21.0889C0.795417 20.9725 0.755785 20.851 0.729726 20.7051C0.699604 20.5383 0.691329 20.3595 0.687194 20.2067C0.684833 20.1193 0.683847 20.0318 0.683287 19.9448L0.682861 19.6881L0.682881 19.6203V4.86591L0.682861 4.79813L0.683267 4.54195C0.683847 4.45447 0.684833 4.367 0.687194 4.2796C0.691329 4.12666 0.699604 3.94779 0.729976 3.77963C0.755804 3.63504 0.795417 3.51352 0.854963 3.39657C0.913677 3.28098 0.990351 3.17546 1.08294 3.08289C1.17516 2.99064 1.28073 2.91394 1.39706 2.85479C1.51327 2.79561 1.63501 2.75588 1.77995 2.7298C1.94694 2.69979 2.12618 2.69152 2.27968 2.68736C2.36718 2.68498 2.45468 2.68404 2.54153 2.68344L2.86576 2.6828H29.1343Z" fill="white"/>
<path d="M8.73583 8.89033C9.00982 8.54762 9.19575 8.08747 9.14671 7.61725C8.74563 7.63719 8.25618 7.88186 7.97281 8.22484C7.71837 8.51854 7.49318 8.99796 7.55189 9.44847C8.00213 9.48753 8.45195 9.22342 8.73583 8.89033Z" fill="#1C1C28"/>
<path d="M9.14156 9.53642C8.4877 9.49747 7.93176 9.90752 7.6195 9.90752C7.30708 9.90752 6.82892 9.55605 6.31175 9.56552C5.63863 9.57541 5.01404 9.956 4.67246 10.5613C3.96988 11.7723 4.48705 13.5685 5.17027 14.5547C5.50206 15.0427 5.90192 15.5799 6.4288 15.5606C6.92661 15.5411 7.12173 15.2383 7.72684 15.2383C8.3315 15.2383 8.50726 15.5606 9.03423 15.5508C9.5807 15.5411 9.92234 15.0627 10.2541 14.5743C10.6347 14.0181 10.7906 13.481 10.8004 13.4515C10.7906 13.4417 9.74661 13.0413 9.73693 11.8404C9.72707 10.8349 10.5565 10.3566 10.5956 10.3269C10.1272 9.63416 9.39529 9.55605 9.14156 9.53642Z" fill="#1C1C28"/>
<path d="M14.8348 8.17566C16.256 8.17566 17.2456 9.15527 17.2456 10.5815C17.2456 12.0129 16.2356 12.9976 14.7992 12.9976H13.2257V15.4998H12.0889V8.17566H14.8348V8.17566ZM13.2257 12.0433H14.5302C15.52 12.0433 16.0833 11.5104 16.0833 10.5866C16.0833 9.6629 15.52 9.13501 14.5353 9.13501H13.2257V12.0433Z" fill="#1C1C28"/>
<path d="M17.5427 13.9823C17.5427 13.0483 18.2584 12.4748 19.5274 12.4037L20.9891 12.3175V11.9064C20.9891 11.3125 20.5881 10.9572 19.9182 10.9572C19.2836 10.9572 18.8877 11.2617 18.7914 11.7389H17.756C17.8169 10.7744 18.639 10.0638 19.9588 10.0638C21.253 10.0638 22.0803 10.7491 22.0803 11.82V15.4999H21.0296V14.6218H21.0044C20.6948 15.2157 20.0197 15.5912 19.3193 15.5912C18.2737 15.5912 17.5427 14.9415 17.5427 13.9823ZM20.9891 13.5001V13.0789L19.6745 13.16C19.0197 13.2057 18.6492 13.495 18.6492 13.9518C18.6492 14.4187 19.035 14.7233 19.6237 14.7233C20.3901 14.7233 20.9891 14.1954 20.9891 13.5001Z" fill="#1C1C28"/>
<path d="M23.0721 17.4642V16.5759C23.1531 16.5962 23.3358 16.5962 23.4273 16.5962C23.9348 16.5962 24.2089 16.3831 24.3763 15.8349C24.3763 15.8247 24.4729 15.5101 24.4729 15.505L22.5442 10.1603H23.7317L25.082 14.5051H25.1022L26.4525 10.1603H27.6097L25.6097 15.779C25.1531 17.0734 24.6252 17.4896 23.5187 17.4896C23.4273 17.4896 23.1531 17.4794 23.0721 17.4642Z" fill="#1C1C28"/>
</svg>
