<svg width="22" height="23" viewBox="0 0 22 23" fill="none" xmlns="http://www.w3.org/2000/svg">
<path d="M4.47926 9.70869C4.47885 9.49938 4.55175 9.29653 4.6853 9.13536C4.76051 9.04464 4.85287 8.96966 4.9571 8.9147C5.06132 8.85974 5.17537 8.82588 5.2927 8.81506C5.41004 8.80424 5.52835 8.81668 5.64087 8.85166C5.75339 8.88664 5.8579 8.94347 5.94843 9.0189L10.7501 13.0322L15.5607 9.16223C15.6524 9.08782 15.7578 9.03225 15.871 8.99872C15.9841 8.96518 16.1028 8.95435 16.2202 8.96684C16.3376 8.97932 16.4513 9.01489 16.5549 9.07148C16.6585 9.12807 16.7499 9.20458 16.8238 9.29661C16.9054 9.38929 16.9669 9.49784 17.0045 9.61543C17.0421 9.73302 17.055 9.85711 17.0424 9.97993C17.0298 10.1027 16.9919 10.2216 16.9312 10.3291C16.8705 10.4366 16.7882 10.5304 16.6895 10.6045L11.3145 14.9314C11.1542 15.0632 10.9531 15.1352 10.7456 15.1352C10.5381 15.1352 10.3371 15.0632 10.1768 14.9314L4.80176 10.4522C4.69335 10.3624 4.60765 10.2482 4.55162 10.119C4.49558 9.98983 4.47079 9.84925 4.47926 9.70869Z" fill="#3F3F3F"/>
</svg>
