<svg width="22" height="22" viewBox="0 0 22 22" fill="none" xmlns="http://www.w3.org/2000/svg">
<path d="M7.23445 2.44689C8.18667 -0.117192 11.8133 -0.117193 12.7656 2.44688C13.2589 3.7754 14.6272 4.56539 16.0244 4.3284C18.7211 3.87101 20.5344 7.0118 18.79 9.11848C17.8862 10.21 17.8862 11.79 18.79 12.8815C20.5344 14.9882 18.7211 18.129 16.0244 17.6716C14.6272 17.4346 13.2589 18.2246 12.7656 19.5531C11.8133 22.1172 8.18667 22.1172 7.23445 19.5531C6.74108 18.2246 5.37277 17.4346 3.97556 17.6716C1.27889 18.129 -0.534437 14.9882 1.21001 12.8815C2.11385 11.79 2.11385 10.21 1.21001 9.11848C-0.534436 7.0118 1.27889 3.87101 3.97556 4.3284C5.37277 4.56539 6.74108 3.7754 7.23445 2.44689Z" fill="#FDCCC5"/>
<g clip-path="url(#clip0_327_3346)">
<path d="M8.33333 10.5834C8.62176 10.5834 8.90372 10.4979 9.14354 10.3376C9.38336 10.1774 9.57028 9.94964 9.68066 9.68316C9.79104 9.41669 9.81992 9.12346 9.76365 8.84058C9.70738 8.55769 9.56848 8.29784 9.36453 8.09388C9.16058 7.88993 8.90073 7.75104 8.61784 7.69477C8.33495 7.6385 8.04173 7.66738 7.77525 7.77776C7.50878 7.88814 7.28102 8.07505 7.12077 8.31488C6.96053 8.5547 6.875 8.83665 6.875 9.12508C6.875 9.51186 7.02865 9.88279 7.30214 10.1563C7.57563 10.4298 7.94656 10.5834 8.33333 10.5834ZM8.33333 8.50008C8.45695 8.50008 8.57778 8.53674 8.68056 8.60541C8.78335 8.67409 8.86345 8.7717 8.91076 8.8859C8.95806 9.00011 8.97044 9.12578 8.94632 9.24701C8.92221 9.36825 8.86268 9.47962 8.77528 9.56702C8.68787 9.65443 8.5765 9.71396 8.45526 9.73807C8.33403 9.76219 8.20836 9.74981 8.09416 9.70251C7.97995 9.6552 7.88234 9.57509 7.81366 9.47231C7.74499 9.36953 7.70833 9.2487 7.70833 9.12508C7.70833 8.95932 7.77418 8.80035 7.89139 8.68314C8.0086 8.56593 8.16757 8.50008 8.33333 8.50008Z" fill="white"/>
<path d="M11.6666 11.8333C11.3782 11.8333 11.0962 11.9188 10.8564 12.079C10.6166 12.2393 10.4296 12.467 10.3193 12.7335C10.2089 13 10.18 13.2932 10.2363 13.5761C10.2925 13.859 10.4314 14.1188 10.6354 14.3228C10.8393 14.5267 11.0992 14.6656 11.3821 14.7219C11.665 14.7782 11.9582 14.7493 12.2247 14.6389C12.4911 14.5285 12.7189 14.3416 12.8791 14.1018C13.0394 13.862 13.1249 13.58 13.1249 13.2916C13.1249 12.9048 12.9713 12.5339 12.6978 12.2604C12.4243 11.9869 12.0534 11.8333 11.6666 11.8333ZM11.6666 13.9166C11.543 13.9166 11.4221 13.8799 11.3194 13.8113C11.2166 13.7426 11.1365 13.645 11.0892 13.5308C11.0419 13.4166 11.0295 13.2909 11.0536 13.1697C11.0777 13.0484 11.1372 12.9371 11.2246 12.8496C11.3121 12.7622 11.4234 12.7027 11.5447 12.6786C11.6659 12.6545 11.7916 12.6669 11.9058 12.7142C12.02 12.7615 12.1176 12.8416 12.1863 12.9444C12.2549 13.0471 12.2916 13.168 12.2916 13.2916C12.2916 13.4573 12.2257 13.6163 12.1085 13.7335C11.9913 13.8507 11.8323 13.9166 11.6666 13.9166Z" fill="white"/>
<path d="M13.2251 7.77491C13.1906 7.74039 13.1497 7.71301 13.1047 7.69432C13.0596 7.67563 13.0113 7.66602 12.9626 7.66602C12.9138 7.66602 12.8655 7.67563 12.8205 7.69432C12.7754 7.71301 12.7345 7.74039 12.7001 7.77491L6.77508 13.6999C6.70633 13.7701 6.66749 13.8642 6.66675 13.9624C6.66664 14.0358 6.68833 14.1076 6.72907 14.1687C6.76981 14.2298 6.82776 14.2774 6.89559 14.3055C6.96342 14.3337 7.03807 14.341 7.11008 14.3267C7.18209 14.3123 7.24822 14.2769 7.30008 14.2249L13.2251 8.29991C13.2596 8.26547 13.287 8.22455 13.3057 8.17951C13.3244 8.13446 13.334 8.08618 13.334 8.03741C13.334 7.98865 13.3244 7.94036 13.3057 7.89532C13.287 7.85027 13.2596 7.80936 13.2251 7.77491Z" fill="white"/>
</g>
<defs>
<clipPath id="clip0_327_3346">
<rect width="10" height="10" fill="white" transform="translate(5 6)"/>
</clipPath>
</defs>
</svg>
