<svg width="31" height="24" viewBox="0 0 31 24" fill="none" xmlns="http://www.w3.org/2000/svg">
<g clip-path="url(#clip0_200_1585)">
<path d="M0 1.96179H31.2591V21.3126H0V1.96179Z" fill="#79A73A"/>
<path d="M2.97729 8.44432C4.66138 7.94046 5.97891 6.62292 6.48278 4.93884H24.7768C25.2805 6.62302 26.5981 7.94055 28.2823 8.44432V14.8301C26.5981 15.3339 25.2805 16.6514 24.7768 18.3356H6.69861H6.48203C5.97835 16.6517 4.6611 15.3342 2.97729 14.8301V8.44432Z" fill="#AAC16B"/>
<path d="M15.6293 15.3585C17.6845 15.3585 19.3506 13.6924 19.3506 11.6372C19.3506 9.58199 17.6845 7.91589 15.6293 7.91589C13.5741 7.91589 11.908 9.58199 11.908 11.6372C11.908 13.6924 13.5741 15.3585 15.6293 15.3585Z" fill="#79A73A"/>
<path d="M7.44275 12.3815C7.8538 12.3815 8.18702 12.0483 8.18702 11.6372C8.18702 11.2262 7.8538 10.8929 7.44275 10.8929C7.0317 10.8929 6.69849 11.2262 6.69849 11.6372C6.69849 12.0483 7.0317 12.3815 7.44275 12.3815Z" fill="#79A73A"/>
<path d="M23.8165 12.3815C24.2276 12.3815 24.5608 12.0483 24.5608 11.6372C24.5608 11.2262 24.2276 10.8929 23.8165 10.8929C23.4055 10.8929 23.0723 11.2262 23.0723 11.6372C23.0723 12.0483 23.4055 12.3815 23.8165 12.3815Z" fill="#79A73A"/>
</g>
<defs>
<clipPath id="clip0_200_1585">
<rect width="31" height="23.25" fill="white"/>
</clipPath>
</defs>
</svg>
