<svg width="32" height="24" viewBox="0 0 32 24" fill="none" xmlns="http://www.w3.org/2000/svg">
<path d="M22.4085 7.327C22.6405 5.849 22.407 4.8435 21.6075 3.9325C20.7275 2.9295 19.1375 2.5 17.103 2.5H11.198C10.7825 2.5 10.4285 2.8025 10.3635 3.213L7.90449 18.806C7.85599 19.1135 8.09399 19.392 8.40499 19.392H12.0505L11.799 20.9875C11.7565 21.2565 11.9645 21.5 12.237 21.5H15.31C15.674 21.5 15.9835 21.2355 16.04 20.876L16.07 20.72L16.649 17.049L16.6865 16.846C16.743 16.4865 17.053 16.222 17.4165 16.222H17.876C20.853 16.222 23.184 15.0125 23.865 11.5145C24.1495 10.053 24.0025 8.833 23.25 7.9755C23.022 7.7165 22.739 7.502 22.4085 7.327Z" fill="#03A9F4"/>
<path d="M22.4085 7.327C22.6405 5.849 22.407 4.8435 21.6075 3.9325C20.7275 2.9295 19.1375 2.5 17.103 2.5H11.198C10.7825 2.5 10.4285 2.8025 10.3635 3.213L7.90449 18.806C7.85599 19.1135 8.09399 19.392 8.40499 19.392H12.0505L12.9665 13.585L12.938 13.767C13.003 13.3565 13.354 13.0535 13.7695 13.0535H15.5025C18.9055 13.0535 21.57 11.671 22.3485 7.673C22.3715 7.5545 22.391 7.44 22.4085 7.327Z" fill="#3949AB"/>
<path d="M12.949 13.767C13.014 13.3565 13.365 13.0535 13.7805 13.0535H15.5135C21.4525 13.0535 22.1055 8.79353 22.42 7.32703C22.2235 7.22303 21.3065 6.72253 19.3205 6.72253H14.6915C14.578 6.72253 14.105 6.77503 13.9615 7.34653L12.949 13.767Z" fill="#1A237E"/>
</svg>
