<svg width="26" height="18" viewBox="0 0 26 18" fill="none" xmlns="http://www.w3.org/2000/svg">
<rect width="26" height="17.8286" rx="1.48571" fill="black"/>
<path fill-rule="evenodd" clip-rule="evenodd" d="M16.4738 13.9702C19.2734 13.9702 21.5429 11.6743 21.5429 8.84223C21.5429 6.01015 19.2734 3.71429 16.4738 3.71429C15.2191 3.71429 14.0709 4.17543 13.1858 4.9393C12.3006 4.17543 11.1524 3.7143 9.8977 3.7143C7.09812 3.7143 4.82861 6.01016 4.82861 8.84223C4.82861 11.6743 7.09812 13.9702 9.8977 13.9702C11.1524 13.9702 12.3006 13.509 13.1858 12.7452C14.0709 13.509 15.2192 13.9702 16.4738 13.9702Z" fill="#ED0006"/>
<path fill-rule="evenodd" clip-rule="evenodd" d="M13.1858 12.7451C14.2757 11.8046 14.9668 10.405 14.9668 8.84223C14.9668 7.2794 14.2757 5.87987 13.1858 4.93931C14.071 4.17543 15.2192 3.71429 16.4739 3.71429C19.2735 3.71429 21.543 6.01015 21.543 8.84223C21.543 11.6743 19.2735 13.9702 16.4739 13.9702C15.2192 13.9702 14.071 13.509 13.1858 12.7451Z" fill="#F9A000"/>
<path fill-rule="evenodd" clip-rule="evenodd" d="M13.1858 12.7452C14.2757 11.8046 14.9668 10.4051 14.9668 8.84224C14.9668 7.27942 14.2757 5.87989 13.1858 4.93933C12.0959 5.87989 11.4048 7.27942 11.4048 8.84224C11.4048 10.4051 12.0959 11.8046 13.1858 12.7452Z" fill="#FF5E00"/>
</svg>
