<svg width="32" height="32" viewBox="0 0 32 32" fill="none" xmlns="http://www.w3.org/2000/svg">
<g clip-path="url(#clip0_608_694)">
<path d="M15.9999 25C11.7349 25 7.69889 23.193 4.63289 19.912C4.25589 19.509 4.27789 18.876 4.68089 18.499C5.08489 18.122 5.71689 18.144 6.09489 18.547C8.77789 21.419 12.2949 23 15.9999 23C20.7629 23 25.1489 20.395 27.8399 16C25.1499 11.605 20.7629 9 15.9999 9C11.0619 9 6.52789 11.801 3.86989 16.493C3.59789 16.974 2.98589 17.144 2.50689 16.87C2.02589 16.598 1.85789 15.988 2.12989 15.507C5.14689 10.18 10.3329 7 15.9999 7C21.6679 7 26.8529 10.18 29.8699 15.507C30.0429 15.813 30.0429 16.187 29.8699 16.492C26.8529 21.819 21.6679 25 15.9999 25Z" fill="#3F3F3F"/>
<path d="M16 21C13.243 21 11 18.757 11 16C11 13.243 13.243 11 16 11C18.757 11 21 13.243 21 16C21 18.757 18.757 21 16 21ZM16 13C14.346 13 13 14.346 13 16C13 17.654 14.346 19 16 19C17.654 19 19 17.654 19 16C19 14.346 17.654 13 16 13Z" fill="#3F3F3F"/>
</g>
<defs>
<clipPath id="clip0_608_694">
<rect width="32" height="32" fill="white"/>
</clipPath>
</defs>
</svg>
